<svg xmlns="http://www.w3.org/2000/svg" width="30" height="30" viewBox="0 0 30 30">
  <g id="Arrow_R" style="mix-blend-mode: normal;isolation: isolate">
    <path id="Arrow_R-2" data-name="Arrow_R" d="M79,65.875A13.125,13.125,0,1,1,65.875,79,13.126,13.126,0,0,1,79,65.875ZM79,94A15,15,0,1,0,64,79,15,15,0,0,0,79,94Zm5.35-14.338a.941.941,0,0,0,0-1.324l-4.219-4.219a.936.936,0,0,0-1.324,1.324l2.619,2.619H74.313a.938.938,0,0,0,0,1.875h7.113l-2.619,2.619a.936.936,0,0,0,1.324,1.324Z" transform="translate(-64 -64)" fill="#313131"/>
  </g>
</svg>
