<svg id="Arrow_R" xmlns="http://www.w3.org/2000/svg" width="31" height="31" viewBox="0 0 31 31">
  <path id="Arrow_R-2" data-name="Arrow_R" d="M79.267,65.908A13.359,13.359,0,1,1,65.908,79.267,13.36,13.36,0,0,1,79.267,65.908Zm0,28.626A15.267,15.267,0,1,0,64,79.267,15.266,15.266,0,0,0,79.267,94.534Zm5.445-14.593a.957.957,0,0,0,0-1.348L80.418,74.3a.953.953,0,0,0-1.348,1.348l2.666,2.666H74.5a.954.954,0,0,0,0,1.908h7.24L79.07,82.887a.953.953,0,0,0,1.348,1.348Z" transform="translate(-64 -64)" fill="#fff"/>
</svg>
