<svg id="Icon_firmy" xmlns="http://www.w3.org/2000/svg" xmlns:xlink="http://www.w3.org/1999/xlink" width="50" height="50" viewBox="0 0 50 50">
  <defs>
    <clipPath id="clip-path">
      <rect id="Rectangle_360" data-name="Rectangle 360" width="50" height="50" fill="#0eac60"/>
    </clipPath>
  </defs>
  <g id="Group_964" data-name="Group 964" clip-path="url(#clip-path)">
    <path id="Path_1547" data-name="Path 1547" d="M126,86.016a1.348,1.348,0,1,0-1.348,1.348A1.345,1.345,0,0,0,126,86.016" transform="translate(-99.653 -68.427)" fill="#0eac60"/>
    <rect id="Rectangle_357" data-name="Rectangle 357" width="4.493" height="10.782" transform="translate(16.015 20.733)" fill="#0eac60"/>
    <rect id="Rectangle_358" data-name="Rectangle 358" width="4.493" height="10.782" transform="translate(29.493 20.733)" fill="#0eac60"/>
    <rect id="Rectangle_359" data-name="Rectangle 359" width="5.391" height="10.782" transform="translate(22.304 20.733)" fill="#0eac60"/>
    <path id="Path_1548" data-name="Path 1548" d="M25,0A25,25,0,1,0,50,25,25,25,0,0,0,25,0M11.449,17.427,24.029,9.34a1.791,1.791,0,0,1,1.943,0l12.579,8.087a1.8,1.8,0,0,1-.971,3.308h-1.8V31.517h.9a.9.9,0,0,1,0,1.8H13.319a.9.9,0,1,1,0-1.8h.9V20.734h-1.8a1.8,1.8,0,0,1-.971-3.308m27.028,20.38H11.522a.9.9,0,1,1,0-1.8H38.478a.9.9,0,0,1,0,1.8" transform="translate(0 -0.001)" fill="#0eac60"/>
    <path id="Path_1549" data-name="Path 1549" d="M74.186,63.3a3.145,3.145,0,0,1,6.29,0,3.1,3.1,0,0,1-.3,1.348H89.91L77.331,56.563,64.752,64.65H74.49a3.1,3.1,0,0,1-.3-1.348" transform="translate(-52.331 -45.713)" fill="#0eac60"/>
  </g>
</svg>
