<svg id="Icon_poradenstvi" xmlns="http://www.w3.org/2000/svg" xmlns:xlink="http://www.w3.org/1999/xlink" width="50" height="50" viewBox="0 0 50 50">
  <defs>
    <clipPath id="clip-path">
      <rect id="Rectangle_343" data-name="Rectangle 343" width="50" height="50" fill="#0eac60"/>
    </clipPath>
  </defs>
  <g id="Group_940" data-name="Group 940" clip-path="url(#clip-path)">
    <path id="Path_1537" data-name="Path 1537" d="M18.237,4.14A14.094,14.094,0,1,0,32.331,18.234,14.1,14.1,0,0,0,18.237,4.14M23.27,13.7a1.511,1.511,0,1,1-1.512,1.509A1.506,1.506,0,0,1,23.27,13.7m-10.07,0a1.511,1.511,0,1,1-1.509,1.509A1.508,1.508,0,0,1,13.2,13.7M25.894,23.765a10.073,10.073,0,0,1-15.316,0,1.009,1.009,0,1,1,1.536-1.309,8.045,8.045,0,0,0,12.245,0,1.009,1.009,0,1,1,1.536,1.309" transform="translate(6.764 6.764)" fill="#0eac60"/>
    <path id="Path_1538" data-name="Path 1538" d="M25,0A25,25,0,1,0,50,25,25,25,0,0,0,25,0m0,41.108A16.109,16.109,0,1,1,41.11,25,16.108,16.108,0,0,1,25,41.108" transform="translate(0 0)" fill="#0eac60"/>
  </g>
</svg>
