<svg id="Decor-line" xmlns="http://www.w3.org/2000/svg" width="162.417" height="13.324" viewBox="0 0 162.417 13.324">
  <path id="Path_18" data-name="Path 18" d="M6.277,3.916,3.14.773,0,3.913,3.142,7.052,0,10.192l3.141,3.141,3.141-3.141,3.138,3.141,3.14-3.14L9.418,7.057l3.143-3.144L9.42.773Z" transform="translate(0 -0.391)" fill="#fff"/>
  <path id="Path_19" data-name="Path 19" d="M54.268,0l0,4.441H49.827V8.883H54.27l0,4.441h4.441l0-4.441h4.446V4.441H58.7l0-4.441Z" transform="translate(-25.232 0)" fill="#fff"/>
  <path id="Path_20" data-name="Path 20" d="M107.471,3.916,104.335.773l-3.14,3.14,3.141,3.139-3.141,3.141,3.141,3.141,3.141-3.141,3.138,3.141,3.14-3.14-3.144-3.136,3.144-3.144L110.615.773Z" transform="translate(-51.243 -0.391)" fill="#fff"/>
  <path id="Path_21" data-name="Path 21" d="M155.462,0l0,4.441h-4.442V8.883h4.442l0,4.441H159.9L159.9,8.883h4.446V4.441H159.9L159.9,0Z" transform="translate(-76.475 0)" fill="#fff"/>
  <path id="Path_22" data-name="Path 22" d="M208.666,3.916,205.529.773l-3.14,3.14,3.141,3.139-3.141,3.141,3.141,3.141,3.141-3.141,3.138,3.141,3.14-3.14-3.143-3.136,3.143-3.144L211.809.773Z" transform="translate(-102.486 -0.391)" fill="#fff"/>
  <path id="Path_23" data-name="Path 23" d="M309.86,3.916,306.724.773l-3.14,3.14,3.141,3.139-3.141,3.141,3.141,3.141,3.141-3.141L313,13.334l3.14-3.14L313,7.057l3.144-3.144L313,.773Z" transform="translate(-153.729 -0.391)" fill="#fff"/>
  <path id="Path_24" data-name="Path 24" d="M256.657,0l0,4.441h-4.443V8.883h4.443l0,4.441H261.1l0-4.441h4.446V4.441h-4.446L261.1,0Z" transform="translate(-127.717 0)" fill="#fff"/>
</svg>
