<svg id="Icon_fksp" xmlns="http://www.w3.org/2000/svg" xmlns:xlink="http://www.w3.org/1999/xlink" width="50" height="50" viewBox="0 0 50 50">
  <defs>
    <clipPath id="clip-path">
      <rect id="Rectangle_356" data-name="Rectangle 356" width="50" height="50" fill="#0eac60"/>
    </clipPath>
  </defs>
  <g id="Group_962" data-name="Group 962" clip-path="url(#clip-path)">
    <path id="Path_1544" data-name="Path 1544" d="M114.313,71.841a.938.938,0,0,1,0-1.4,1.9,1.9,0,0,0-.93-3.246l-.3-.023H102.62a.932.932,0,0,1-.813-1.392l2.586-4.592.094-.193a2.1,2.1,0,0,0-.714-2.556l-.181-.117-.006-.012a2.113,2.113,0,0,0-2.755.62l-.117.181-3.972,7.06a3.946,3.946,0,0,0-.5,1.679l-.006,7.645a6.079,6.079,0,0,0,3.615,5.557,9.306,9.306,0,0,0,3.738,1.088h6.692l.216-.012a1.906,1.906,0,0,0,1.609-2.264.943.943,0,0,1,.626-1.094,1.9,1.9,0,0,0,1.047-2.7.934.934,0,0,1,.31-1.246,1.893,1.893,0,0,0,.228-2.983" transform="translate(-77.773 -46.903)" fill="#0eac60"/>
    <path id="Path_1545" data-name="Path 1545" d="M69.764,105.611H67.892a.939.939,0,0,0-.936.936v13.1a.939.939,0,0,0,.936.936h1.872a.939.939,0,0,0,.936-.936v-13.1a.939.939,0,0,0-.936-.936" transform="translate(-54.112 -85.353)" fill="#0eac60"/>
    <path id="Path_1546" data-name="Path 1546" d="M25,0A25,25,0,1,0,50,25,25,25,0,0,0,25,0M36.236,33.332a3.8,3.8,0,0,1-3.3,3.755l-.439.023H25.806a10.921,10.921,0,0,1-4.487-1.246h-.006a8.086,8.086,0,0,1-2.854-2.147v.591a2.808,2.808,0,0,1-2.808,2.808H13.78a2.809,2.809,0,0,1-2.808-2.808V21.194a2.809,2.809,0,0,1,2.808-2.808h1.872a2.818,2.818,0,0,1,1.462.409c.07-.152.146-.3.228-.45l3.972-7.06.217-.345v.006a3.974,3.974,0,0,1,5.2-1.17l.345.216a3.987,3.987,0,0,1,1.357,4.838l-.181.363-1.8,3.2h8.862l.316.012a3.782,3.782,0,0,1,2.767,5.838,3.788,3.788,0,0,1-.451,4.75,3.8,3.8,0,0,1-1.708,4.34" fill="#0eac60"/>
  </g>
</svg>
