<svg id="logo-zdravpo-pardubice" xmlns="http://www.w3.org/2000/svg" xmlns:xlink="http://www.w3.org/1999/xlink" width="318" height="69.646" viewBox="0 0 318 69.646">
  <defs>
    <clipPath id="clip-path">
      <rect id="Rectangle_6" data-name="Rectangle 6" width="318" height="69.646" fill="none"/>
    </clipPath>
  </defs>
  <path id="Path_25" data-name="Path 25" d="M12.174.7V12.876H0v9.917H12.178V34.966H22.1l-.019-12.173H34.26V12.875H22.076L22.09.7Z" transform="translate(0 0.011)" fill="#0eac60"/>
  <path id="Path_26" data-name="Path 26" d="M45.184.7V8.556H73.473L44.644,20.831V34.97H78.429V27.115H49.75L78.384,14.939V.7Z" transform="translate(0.686 0.011)" fill="#0eac60"/>
  <g id="Group_6" data-name="Group 6" transform="translate(0)">
    <g id="Group_5" data-name="Group 5" clip-path="url(#clip-path)">
      <path id="Path_27" data-name="Path 27" d="M103.049.725H85.394v34.27h17.655c10.605,0,17.577-6.824,17.577-17.086,0-10.656-6.675-17.184-17.577-17.184m0,26.512H93.888V8.434H103c5.745,0,9.083,3.387,9.083,9.279,0,5.793-3.486,9.524-9.037,9.524" transform="translate(1.312 0.011)" fill="#0eac60"/>
      <path id="Path_28" data-name="Path 28" d="M175.358.725,163.81,34.995h8.935l2.5-8h15.289l2.5,8h8.985L190.48.725Zm2.248,18.9,5.312-14.533,5.311,14.533Z" transform="translate(2.517 0.011)" fill="#0eac60"/>
      <path id="Path_29" data-name="Path 29" d="M217.9,30.526,207.424.724h-8.985l12,34.27h14.926L237.314.724h-8.987Z" transform="translate(3.049 0.011)" fill="#0eac60"/>
      <path id="Path_30" data-name="Path 30" d="M260.873.725H240.312v34.27H248.8V25.617h12.118c7.412,0,12.175-5.5,12.175-12.518,0-6.874-4.366-12.372-12.226-12.372M259.847,17.86H248.8V8.482h11.284a4.294,4.294,0,0,1,4.426,4.156c0,.138,0,.276-.007.413,0,2.843-1.473,4.812-4.665,4.812" transform="translate(3.692 0.011)" fill="#0eac60"/>
      <path id="Path_31" data-name="Path 31" d="M295.241,0c-10.6,0-18.608,7.659-18.608,17.626,0,10.261,8,18.116,18.608,18.116,10.507,0,18.509-7.806,18.509-18.116,0-9.967-8-17.626-18.509-17.626m0,27.936c-6.873,0-10.064-5.057-10.064-10.31,0-4.713,3.191-9.819,10.064-9.819a9.528,9.528,0,0,1,9.962,9.072q.017.373.005.746c0,5.253-3.191,10.31-9.967,10.31" transform="translate(4.25 0)" fill="#0eac60"/>
      <path id="Path_32" data-name="Path 32" d="M158.405,12.82C158.405,5.945,154.039.7,146.179.7H125.618v34.27h8.494V24.846H139l11.392,10.124h11.381l-11.9-10.578c5.292-1.373,8.536-5.788,8.536-11.575M134.112,8.451h11.283a4.093,4.093,0,0,1,4.419,4.312c0,2.843-1.473,4.319-4.665,4.319H134.112Z" transform="translate(1.93 0.011)" fill="#0eac60"/>
      <path id="Path_33" data-name="Path 33" d="M11.275,68.664V50.717h6.041a8.11,8.11,0,0,1,3.337.621,4.5,4.5,0,0,1,2.12,1.917,6.621,6.621,0,0,1,.736,3.3,5.786,5.786,0,0,1-.876,3.288,5.405,5.405,0,0,1-2.386,1.967,8.432,8.432,0,0,1-3.414.66H12.722v6.194Zm1.447-7.488h4.036a6.018,6.018,0,0,0,3.808-1.129,4.276,4.276,0,0,0,1.447-3.592,4.124,4.124,0,0,0-1.269-3.376,5.46,5.46,0,0,0-3.554-1.041H12.722Z" transform="translate(0.173 0.779)" fill="#0eac60"/>
      <path id="Path_34" data-name="Path 34" d="M43.75,68.664l6.93-17.947h1.853l6.981,17.947H57.888l-1.573-4.036H46.9l-1.548,4.036Zm3.63-5.331h8.453L51.619,52.215Z" transform="translate(0.672 0.779)" fill="#0eac60"/>
      <path id="Path_35" data-name="Path 35" d="M81.9,68.664V50.717h6.6a10.561,10.561,0,0,1,2.577.291,5.363,5.363,0,0,1,1.98.927,4.073,4.073,0,0,1,1.269,1.689,6.566,6.566,0,0,1,.445,2.551,5.5,5.5,0,0,1-.508,2.437,4.543,4.543,0,0,1-1.472,1.726,6.381,6.381,0,0,1-2.285.99l3.909,7.336h-1.6l-3.808-7.082h-5.66v7.082Zm1.448-8.377h4.442a12.538,12.538,0,0,0,2.056-.164,5.1,5.1,0,0,0,1.764-.622,3.233,3.233,0,0,0,1.217-1.281,4.449,4.449,0,0,0,.446-2.12,4.01,4.01,0,0,0-.622-2.462,3.39,3.39,0,0,0-1.777-1.244,8.794,8.794,0,0,0-2.628-.355h-4.9Z" transform="translate(1.258 0.779)" fill="#0eac60"/>
      <path id="Path_36" data-name="Path 36" d="M118.274,68.664V50.717h6.244a8.8,8.8,0,0,1,4.632,1.129,7.087,7.087,0,0,1,2.805,3.148A11.052,11.052,0,0,1,132.9,59.7a10.9,10.9,0,0,1-.939,4.671,7.168,7.168,0,0,1-2.805,3.148,8.72,8.72,0,0,1-4.632,1.142Zm1.448-1.32h4.595a7.382,7.382,0,0,0,3.946-.965,6.006,6.006,0,0,0,2.349-2.692A9.5,9.5,0,0,0,131.4,59.7a9.748,9.748,0,0,0-.762-3.948,6.091,6.091,0,0,0-2.285-2.729,6.954,6.954,0,0,0-3.858-.989h-4.771Z" transform="translate(1.817 0.779)" fill="#0eac60"/>
      <path id="Path_37" data-name="Path 37" d="M163.1,68.867a7.076,7.076,0,0,1-3.973-1.015,5.959,5.959,0,0,1-2.259-2.779,10.631,10.631,0,0,1-.724-4.05v-10.3h1.473v10.23a9.8,9.8,0,0,0,.546,3.364,4.973,4.973,0,0,0,1.764,2.4,6.253,6.253,0,0,0,6.448-.013,4.965,4.965,0,0,0,1.713-2.411,10.183,10.183,0,0,0,.521-3.338V50.717h1.472v10.3a10.773,10.773,0,0,1-.711,4.05,5.864,5.864,0,0,1-2.259,2.779,7.192,7.192,0,0,1-4.011,1.015" transform="translate(2.399 0.779)" fill="#0eac60"/>
      <path id="Path_38" data-name="Path 38" d="M194.249,68.664V50.717h6.143a13.352,13.352,0,0,1,2.234.178,5.39,5.39,0,0,1,1.853.66,3.4,3.4,0,0,1,1.269,1.32,4.545,4.545,0,0,1,.457,2.182,4.238,4.238,0,0,1-.85,2.7,4.461,4.461,0,0,1-2.323,1.511,4.722,4.722,0,0,1,3.021,1.37,4.3,4.3,0,0,1,1.117,3.1,4.7,4.7,0,0,1-.584,2.462A4.03,4.03,0,0,1,205,67.7a7.447,7.447,0,0,1-2.233.748,14.583,14.583,0,0,1-2.526.216Zm1.447-9.8h3.935a9.664,9.664,0,0,0,1.853-.177,5.754,5.754,0,0,0,1.675-.6,3.339,3.339,0,0,0,1.218-1.131,3.218,3.218,0,0,0,.457-1.777,2.617,2.617,0,0,0-2.259-2.944,10.941,10.941,0,0,0-2.158-.2H195.7Zm0,8.479h4.468a18.152,18.152,0,0,0,1.916-.1,6.346,6.346,0,0,0,1.8-.444,2.967,2.967,0,0,0,1.332-1.079,3.428,3.428,0,0,0,.508-1.979,3.31,3.31,0,0,0-.432-1.765,3.106,3.106,0,0,0-1.129-1.09,5.12,5.12,0,0,0-1.575-.559,9.526,9.526,0,0,0-1.764-.164H195.7Z" transform="translate(2.984 0.779)" fill="#0eac60"/>
      <rect id="Rectangle_5" data-name="Rectangle 5" width="1.447" height="17.947" transform="translate(234.091 51.496)" fill="#0eac60"/>
      <path id="Path_39" data-name="Path 39" d="M263.747,68.87a8.229,8.229,0,0,1-4.607-1.193,7.2,7.2,0,0,1-2.7-3.262,11.816,11.816,0,0,1-.888-4.708,11.618,11.618,0,0,1,.9-4.684,7.388,7.388,0,0,1,2.742-3.287,8.217,8.217,0,0,1,4.632-1.218,8.881,8.881,0,0,1,2.983.481,6.221,6.221,0,0,1,2.309,1.423,5.706,5.706,0,0,1,1.409,2.385h-1.5a4.389,4.389,0,0,0-1.993-2.258,6.469,6.469,0,0,0-9.291,3.2,10.266,10.266,0,0,0-.724,3.909,10.729,10.729,0,0,0,.712,3.948,6.071,6.071,0,0,0,6.067,4,7.75,7.75,0,0,0,2.258-.33,5.561,5.561,0,0,0,1.93-1.015,3.974,3.974,0,0,0,1.217-1.676h1.65a5.864,5.864,0,0,1-1.561,2.362,6.891,6.891,0,0,1-2.475,1.446,9.487,9.487,0,0,1-3.072.483" transform="translate(3.926 0.776)" fill="#0eac60"/>
      <path id="Path_40" data-name="Path 40" d="M294.048,68.663V50.717h11.728v1.32H295.5v7.057h9.239v1.32H295.5v6.93h10.281v1.32Z" transform="translate(4.518 0.779)" fill="#0eac60"/>
    </g>
  </g>
</svg>
