<svg id="Icon_osobnipristup" xmlns="http://www.w3.org/2000/svg" xmlns:xlink="http://www.w3.org/1999/xlink" width="50" height="50" viewBox="0 0 50 50">
  <defs>
    <clipPath id="clip-path">
      <rect id="Rectangle_354" data-name="Rectangle 354" width="50" height="50" fill="#0eac60"/>
    </clipPath>
  </defs>
  <g id="Group_958" data-name="Group 958" clip-path="url(#clip-path)">
    <path id="Path_1541" data-name="Path 1541" d="M83.019,80.8a6.074,6.074,0,0,0-4.855,2.421l-1.07,1.431a1.07,1.07,0,0,1-1.712,0l-1.07-1.431A6.065,6.065,0,0,0,63.4,86.859v.361c0,3.317,2.421,6.633,5.43,9.415a43.871,43.871,0,0,0,7.409,5.416,44.675,44.675,0,0,0,7.409-5.416c3.009-2.8,5.43-6.1,5.43-9.415v-.361A6.061,6.061,0,0,0,83.019,80.8" transform="translate(-51.239 -65.302)" fill="#0eac60"/>
    <path id="Path_1542" data-name="Path 1542" d="M25,0A25,25,0,1,0,50,25,25,25,0,0,0,25,0M39.978,21.919c0,4.28-3.049,8.131-6.125,10.98a46.532,46.532,0,0,1-7.824,5.71,2.029,2.029,0,0,1-2.06,0,46.285,46.285,0,0,1-7.824-5.71c-3.076-2.849-6.125-6.7-6.125-10.98v-.361a8.2,8.2,0,0,1,14.764-4.922l.214.281.214-.281a8.2,8.2,0,0,1,14.764,4.922Z" fill="#0eac60"/>
  </g>
</svg>
