<svg id="Icon_vyber" xmlns="http://www.w3.org/2000/svg" xmlns:xlink="http://www.w3.org/1999/xlink" width="50" height="50" viewBox="0 0 50 50">
  <defs>
    <clipPath id="clip-path">
      <rect id="Rectangle_355" data-name="Rectangle 355" width="50" height="50" fill="#0eac60"/>
    </clipPath>
  </defs>
  <g id="Group_960" data-name="Group 960" clip-path="url(#clip-path)">
    <path id="Path_1543" data-name="Path 1543" d="M25,0A25,25,0,1,0,50,25,25,25,0,0,0,25,0M38.018,12.426,20.182,36.886a1,1,0,0,1-.745.414,1.043,1.043,0,0,1-.8-.293L9.971,28.344a1.018,1.018,0,1,1,1.44-1.44l7.822,7.822,17.135-23.5a1.025,1.025,0,0,1,1.427-.223V11a1.025,1.025,0,0,1,.223,1.427" fill="#0eac60"/>
  </g>
</svg>
